<svg width="16" height="13" viewBox="0 0 16 13" fill="none" xmlns="http://www.w3.org/2000/svg">
<path d="M15.6246 4.49516H13.7537L13.2337 3.19442C12.6993 1.85709 11.424 0.993164 9.98427 0.993164H6.01552C4.57614 0.993164 3.30052 1.85709 2.76583 3.19442L2.24583 4.49516H0.375199C0.131137 4.49516 -0.0479262 4.72466 0.0114489 4.96136L0.198949 5.71179C0.240512 5.87876 0.390512 5.99601 0.5627 5.99601H1.18989C0.7702 6.36278 0.499887 6.8959 0.499887 7.49687V8.99772C0.499887 9.50176 0.692387 9.95671 0.999888 10.3088V11.9994C0.999888 12.5519 1.4477 13 1.99989 13H2.99989C3.55208 13 3.99989 12.5519 3.99989 11.9994V10.9989H11.9999V11.9994C11.9999 12.5519 12.4477 13 12.9999 13H13.9999C14.5521 13 14.9999 12.5519 14.9999 11.9994V10.3088C15.3074 9.95702 15.4999 9.50207 15.4999 8.99772V7.49687C15.4999 6.8959 15.2296 6.36278 14.8102 5.99601H15.4374C15.6096 5.99601 15.7596 5.87876 15.8012 5.71179L15.9887 4.96136C16.0477 4.72466 15.8687 4.49516 15.6246 4.49516ZM4.6227 3.93765C4.85052 3.36795 5.40208 2.9943 6.01552 2.9943H9.98427C10.5977 2.9943 11.1493 3.36795 11.3771 3.93765L11.9999 5.49573H3.99989L4.6227 3.93765ZM2.99989 8.99147C2.39989 8.99147 1.99989 8.59249 1.99989 7.99403C1.99989 7.39556 2.39989 6.99658 2.99989 6.99658C3.59989 6.99658 4.49989 7.89428 4.49989 8.49275C4.49989 9.09121 3.59989 8.99147 2.99989 8.99147ZM12.9999 8.99147C12.3999 8.99147 11.4999 9.09121 11.4999 8.49275C11.4999 7.89428 12.3999 6.99658 12.9999 6.99658C13.5999 6.99658 13.9999 7.39556 13.9999 7.99403C13.9999 8.59249 13.5999 8.99147 12.9999 8.99147Z" fill="#333333"/>
</svg>
