<svg width="13" height="14" viewBox="0 0 13 14" fill="none" xmlns="http://www.w3.org/2000/svg">
<path d="M11.6011 8.37871C11.5367 8.42419 10.2022 9.859 10.2022 10.866C10.2022 11.9277 10.866 12.6057 11.6011 12.6426C12.2348 12.6739 13 12.0094 13 10.866C13 9.80002 11.6654 8.42419 11.6011 8.37871ZM4.31701 12.6426C4.58141 12.9113 4.93253 13.0591 5.30604 13.0591C5.67954 13.0591 6.03067 12.9113 6.29506 12.6426L11.1912 7.66806L10.6967 7.16563L5.30604 1.68861L3.7022 0.059082L2.71317 1.06395L4.31701 2.69348L0.409878 6.66319C0.145486 6.93182 0 7.28857 0 7.66806C0 8.04755 0.145486 8.40429 0.409878 8.67292L4.31701 12.6426ZM5.30604 3.69834L9.21317 7.66806H1.3989L5.30604 3.69834Z" fill="#333333"/>
</svg>
