<svg width="39" height="50" viewBox="0 0 39 50" fill="none" xmlns="http://www.w3.org/2000/svg">
<path d="M36.8155 21.4393L33.7643 16.1354V21.0833C33.9868 25.5091 33.093 26.4247 31.6547 27.5833C32.2773 23.0326 32.1737 15.8613 27.1873 8.66667C24.0697 4.17004 18.8353 1.49361 12.5789 0.563059L8.79896 0L11.5279 2.63849C14.784 5.7866 16.44 9.11866 16.4497 12.5448C16.4545 14.5214 15.9063 16.2889 15.2258 17.7207C15.0633 15.2208 14.1571 12.4008 11.2457 10.8511L9.27899 9.8051L9.4204 12.0007C9.74183 17.0052 7.57212 20.0593 5.27343 23.2936C2.95247 26.559 0.553568 29.9346 0.99664 35.2082C1.75276 44.2109 7.36777 49.1784 17.6864 49.9725C17.9252 49.9916 18.1742 50 18.428 50C23.7155 50 31.6816 46.0529 35.8618 39.4446C38.2914 35.6095 40.7659 29.3691 36.8155 21.4393ZM18.4292 47.5627C18.3723 47.5627 18.3204 47.5579 18.266 47.5567C18.4292 47.5531 18.5767 47.5507 18.7163 47.5495C18.6219 47.5519 18.5222 47.5627 18.4292 47.5627ZM32.5853 37.5833C29.2115 42.9151 25.6619 45.2963 21.1638 45.8333C26.0402 44.3343 27.6586 27.3404 17.6864 24.4167C20.3168 28.9133 15.3158 31.5589 11.8387 33.5986C8.36148 35.6382 6.29314 39.1136 7.7117 43.5C7.76366 43.6607 7.38842 43.1037 7.45788 43.25C5.27343 40.9167 5.19541 39.2078 4.83515 34.9167C4.46465 30.5208 6.02479 28.71 8.18735 25.6667C10.1178 22.9513 11.3756 21.2876 11.8387 17C13.5745 19.8576 12.3536 21.9686 12.3379 22.0233L11.0898 26.4247L14.8185 23.6667C15.0028 23.4875 20.7419 19.7773 20.7407 13.5833C20.7395 10.5399 17.881 6.58745 15.8188 3.79295C19.603 4.98423 21.5272 8.15662 23.6173 11.1667C29.6095 19.7991 27.6974 32.0388 27.6672 32.1745L27.1873 34.2677L29.2593 33.5986C29.3185 33.5795 33.8662 32.3711 35.7157 27.4167C36.7116 32.1755 34.1955 35.0364 32.5853 37.5833Z" fill="#FF4D00"/>
</svg>
