<svg width="21" height="20" viewBox="0 0 21 20" fill="none" xmlns="http://www.w3.org/2000/svg">
<path fill-rule="evenodd" clip-rule="evenodd" d="M0.140205 8.24789C-0.0109569 7.93189 -0.0406058 7.58954 0.0547483 7.26112C0.150102 6.93271 0.366491 6.6319 0.678444 6.39411L8.04478 0.775376C8.69597 0.278903 9.57906 0 10.4998 0C11.4206 0 12.3037 0.278903 12.9549 0.775376L20.3212 6.39322C20.6334 6.63109 20.8499 6.93206 20.9453 7.26065C21.0407 7.58924 21.0109 7.93178 20.8595 8.24789C20.8965 8.33528 20.9174 8.42797 20.9174 8.52419V18.2345C20.9174 18.7027 20.6735 19.1518 20.2393 19.4829C19.8052 19.814 19.2163 20 18.6024 20H2.39733C1.78336 20 1.19453 19.814 0.760379 19.4829C0.326231 19.1518 0.0823301 18.7027 0.0823301 18.2345V8.52419C0.0822379 8.43033 0.101775 8.33706 0.140205 8.24789ZM2.31515 7.64144L9.68149 2.02447C9.89855 1.85898 10.1929 1.76601 10.4998 1.76601C10.8068 1.76601 11.1011 1.85898 11.3182 2.02447L18.6845 7.64144H18.6498V7.66792L11.3182 13.2593C11.1011 13.4248 10.8068 13.5177 10.4998 13.5177C10.1929 13.5177 9.89855 13.4248 9.68149 13.2593L2.31515 7.64144ZM18.6012 10.2014L12.9549 14.5084C12.3037 15.0049 11.4206 15.2838 10.4998 15.2838C9.57906 15.2838 8.69597 15.0049 8.04478 14.5084L2.39618 10.2005V18.2345H18.6012V10.2014Z" fill="white"/>
</svg>
