<svg width="19" height="19" viewBox="0 0 19 19" fill="none" xmlns="http://www.w3.org/2000/svg">
<path d="M14.7088 10.2848C14.616 10.1918 14.5059 10.118 14.3846 10.0677C14.2633 10.0174 14.1333 9.99146 14.002 9.99146C13.8707 9.99146 13.7407 10.0174 13.6194 10.0677C13.4981 10.118 13.3879 10.1918 13.2951 10.2848L11.6985 11.8814C10.8747 11.6363 9.53303 11.1101 8.70922 10.2848C7.83543 9.41045 7.33554 8.03094 7.1156 7.29167L8.70922 5.69708C8.80215 5.60425 8.87586 5.49401 8.92616 5.37265C8.97646 5.25129 9.00235 5.1212 9.00235 4.98981C9.00235 4.85843 8.97646 4.72834 8.92616 4.60698C8.87586 4.48562 8.80215 4.37537 8.70922 4.28255L4.71016 0.281071C4.51903 0.100556 4.26615 0 4.00333 0C3.7405 0 3.48763 0.100556 3.2965 0.281071L0.588133 2.99207C0.206223 3.37222 -0.00872628 3.89641 0.000271605 4.42961C0.0222664 5.85313 0.396178 10.799 4.29626 14.7014C8.19334 18.5999 13.1392 18.977 14.5628 19H14.5908C15.1187 19 15.6176 18.7919 15.9955 18.4138L18.7069 15.7008C18.7998 15.608 18.8735 15.4977 18.9238 15.3764C18.9741 15.255 19 15.1249 19 14.9935C19 14.8621 18.9741 14.732 18.9238 14.6107C18.8735 14.4893 18.7998 14.3791 18.7069 14.2863L14.7088 10.2848ZM14.5818 16.9993C13.3341 16.9783 9.06514 16.6431 5.70993 13.2859C2.34272 9.91664 2.0188 5.63105 1.9998 4.4086L4.00333 2.40286L6.58872 4.98981L5.29602 6.28329C5.05808 6.52138 4.9561 6.86551 5.02509 7.19563C5.04908 7.31067 5.63594 10.0387 7.29555 11.6993C8.95516 13.3599 11.6815 13.9471 11.7965 13.9711C11.959 14.0058 12.1276 13.9992 12.2869 13.9518C12.4462 13.9045 12.5911 13.8179 12.7083 13.7L14.001 12.4066L16.5864 14.9935L14.5818 16.9993Z" fill="white"/>
</svg>
