<svg width="15" height="12" viewBox="0 0 15 12" fill="none" xmlns="http://www.w3.org/2000/svg">
<path d="M14.9269 10.3358L11.2866 0.876361C11.1572 0.53996 10.8751 0.324463 10.5647 0.324463H8.0233L8.0871 1.00909C8.10012 1.14862 8.0035 1.27041 7.87981 1.27041H7.12043C6.99673 1.27041 6.90012 1.14862 6.91314 1.00909L6.97694 0.324463H4.43554C4.12486 0.324463 3.84283 0.53996 3.7134 0.876361L0.0730353 10.3358C-0.16785 10.9622 0.216525 11.6758 0.795431 11.6758H5.92147L6.18996 8.78829C6.21236 8.54766 6.391 8.36498 6.60429 8.36498H8.39595C8.60923 8.36498 8.78788 8.54766 8.81028 8.78829L9.07876 11.6758H14.2048C14.7837 11.6758 15.1681 10.9622 14.9269 10.3358ZM6.78137 2.428C6.78677 2.36988 6.81095 2.3161 6.84923 2.27701C6.8875 2.23793 6.93718 2.21632 6.98866 2.21635H8.01184C8.11835 2.21635 8.20793 2.30769 8.21913 2.428L8.33892 3.71626C8.35845 3.92585 8.21366 4.10823 8.02824 4.10823H6.97251C6.78684 4.10823 6.64231 3.92585 6.66184 3.71626L6.78137 2.428ZM8.21991 7.41903H6.78007C6.53267 7.41903 6.3397 7.17575 6.36574 6.8964L6.49777 5.47749C6.52017 5.23686 6.69882 5.05418 6.9121 5.05418H8.08788C8.30116 5.05418 8.47981 5.23686 8.5022 5.47749L8.63423 6.8964C8.66027 7.17575 8.46731 7.41903 8.21991 7.41903Z" fill="#333333"/>
</svg>
